<?xml version="1.0" encoding="utf-8"?>
<!-- Generator: Adobe Illustrator 16.0.4, SVG Export Plug-In . SVG Version: 6.00 Build 0)  -->
<!DOCTYPE svg PUBLIC "-//W3C//DTD SVG 1.1//EN" "http://www.w3.org/Graphics/SVG/1.1/DTD/svg11.dtd">
<svg version="1.1" xmlns="http://www.w3.org/2000/svg" xmlns:xlink="http://www.w3.org/1999/xlink" x="0px" y="0px"
	 width="112.41px" height="50.526px" viewBox="0 0 112.41 50.526" enable-background="new 0 0 112.41 50.526" xml:space="preserve">
<g id="Layer_1">
	<g>
		<g>
			<path fill="#008ACD" d="M42.173,0.217l-3.952,0.059c-7.967,0.121-17.628,6.551-23.399,10.393
				c-0.796,0.53-1.509,1.005-2.079,1.367l-6.215,0.095c-1.218,0.021-2.353,0.513-3.193,1.39c-0.837,0.872-1.286,2.02-1.266,3.23
				l0.129,8.558l-1.973,4.1C0.073,29.728-0.005,30.077,0,30.43l0.068,4.55c0.056,3.727,3.105,6.722,6.824,6.722
				c0.033,0,0.068,0,0.102,0l7.052-0.107c0.466,2.139,1.541,4.099,3.138,5.667c2.143,2.104,4.977,3.264,7.979,3.264h0.002
				c0.057,0,0.112,0,0.17-0.002c5.496-0.083,10.035-4.066,11.014-9.267c7.222-0.109,29.863-0.452,36.825-0.556
				c0.465,2.136,1.54,4.097,3.135,5.664c2.142,2.106,4.976,3.266,7.979,3.266c0.06,0,0.116-0.001,0.176-0.001
				c5.53-0.085,10.09-4.119,11.027-9.366l14.794-0.959c1.209-0.078,2.145-1.092,2.126-2.304l-0.171-11.373
				c-0.006-0.392-0.113-0.775-0.311-1.112l-2.514-4.311c-0.275-0.471-0.709-0.827-1.225-1.005
				c-0.143-0.049-14.327-4.91-29.907-7.949C71.619,3.954,61.379,0,56.547,0c-0.044,0-0.087,0-0.13,0.001l-7.001,0.106
				 M25.267,45.976l-0.104,0.001c-3.709-0.001-6.773-3.014-6.828-6.716c-0.027-1.821,0.656-3.543,1.926-4.85
				c1.27-1.308,2.975-2.044,4.8-2.071l0.106-0.001c3.709,0,6.771,3.012,6.827,6.714C32.049,42.813,29.032,45.918,25.267,45.976z
				 M84.393,45.081l-0.106,0.001c-3.708,0-6.771-3.014-6.826-6.716c-0.058-3.76,2.961-6.864,6.726-6.921l0.107-0.001
				c3.708,0,6.77,3.012,6.825,6.715C91.175,41.918,88.159,45.023,84.393,45.081z M95.375,35.712
				c-1.17-5.034-5.718-8.818-11.081-8.818c-0.059,0-0.116,0.001-0.177,0.002c-5.491,0.083-10.028,4.062-11.01,9.256
				c-6.96,0.105-29.605,0.448-36.828,0.557c-0.468-2.133-1.54-4.089-3.135-5.655c-2.183-2.146-5.093-3.306-8.152-3.263
				c-3.04,0.046-5.879,1.271-7.995,3.45c-1.576,1.623-2.609,3.631-3.018,5.805l-7.052,0.106c-0.012,0-0.023,0.001-0.034,0.001
				c-1.24,0-2.257-0.999-2.275-2.241l-0.061-4.012l1.975-4.1c0.152-0.319,0.23-0.668,0.225-1.021L6.618,16.68l6.824-0.104
				c0.4-0.006,0.794-0.119,1.138-0.326c0.711-0.428,1.616-1.031,2.764-1.794c5.004-3.331,14.317-9.53,20.945-9.631L56.486,4.55
				c0.026,0,0.052,0,0.077,0c3.51,0,12.938,3.482,18.812,10.277c0.335,0.388,0.792,0.65,1.294,0.747
				c13.458,2.564,26.023,6.594,29.246,7.662l1.783,3.057l0.131,8.612L95.375,35.712z"/>
			<path fill="#008ACD" d="M67.494,15.76l-18.396,0.277l-4.127-9.882l-4.197,1.754l3.426,8.203l-20.719,0.314l-1.634-1.584
				l-3.166,3.268l2.311,2.238c0.425,0.412,0.992,0.641,1.583,0.641c0.012,0,0.021,0,0.035,0l25.018-0.379l0,0L68.099,20.3
				c0.353-0.005,0.699-0.092,1.013-0.255l4.514-2.341l-2.095-4.039L67.494,15.76z"/>
		</g>
	</g>
</g>
<g id="Layer_2" display="none">
</g>
</svg>
