<?xml version="1.0" encoding="utf-8"?>
<!-- Generator: Adobe Illustrator 16.0.4, SVG Export Plug-In . SVG Version: 6.00 Build 0)  -->
<!DOCTYPE svg PUBLIC "-//W3C//DTD SVG 1.1//EN" "http://www.w3.org/Graphics/SVG/1.1/DTD/svg11.dtd">
<svg version="1.1" xmlns="http://www.w3.org/2000/svg" xmlns:xlink="http://www.w3.org/1999/xlink" x="0px" y="0px"
	 width="131.042px" height="125.484px" viewBox="0 0 131.042 125.484" enable-background="new 0 0 131.042 125.484"
	 xml:space="preserve">
<g id="Layer_1">
	<g>
		<g>
			<path fill="none" stroke="#2C2C2D" stroke-width="7" stroke-linecap="round" stroke-linejoin="round" stroke-miterlimit="10" d="
				M37.975,42.938c-3.137,0.654-5.642,1.531-6.844,4.324c-0.873,2.029-5.496,13.894-5.496,13.894"/>
			<path fill="none" stroke="#2C2C2D" stroke-width="7" stroke-linecap="round" stroke-linejoin="round" stroke-miterlimit="10" d="
				M27.02,79.547L27.02,79.547c3.52,3.523,8.298,5.5,13.277,5.5h5.974"/>
			<path fill="none" stroke="#2C2C2D" stroke-width="7" stroke-linecap="round" stroke-linejoin="round" stroke-miterlimit="10" d="
				M15.904,106.478v12.405c0,1.714,1.387,3.102,3.101,3.102h21.707c1.715,0,3.103-1.388,3.103-3.102v-9.305"/>
			
				<line fill="none" stroke="#2C2C2D" stroke-width="7" stroke-linecap="round" stroke-linejoin="round" stroke-miterlimit="10" x1="65.521" y1="96.298" x2="46.271" y2="96.298"/>
			<path fill="none" stroke="#2C2C2D" stroke-width="7" stroke-linecap="round" stroke-linejoin="round" stroke-miterlimit="10" d="
				M65.521,68.266c0,0,25.765,0,27.909,0c3.828,0,9.888-4.047,10.484-4.87l4.1-6.154c0.576-0.858,1.546-1.381,2.58-1.381h13.846
				c1.714,0,3.102,1.39,3.102,3.102v6.203c0,1.714-1.388,3.101-3.102,3.101l-8.135,2.035c-2.079,0.52-3.019,2.943-1.828,4.73
				l3.24,4.857c0.339,0.51,0.521,2.332,0.521,3.883v15.506c0,5.138-4.164,9.301-9.303,9.301H22.107
				c-5.142,0-9.305-4.163-9.305-9.301V83.771c0-1.551,0.182-3.373,0.521-3.883l3.24-4.857c1.189-1.787,0.252-4.211-1.83-4.73
				l-8.133-2.035c-1.715,0-3.102-1.387-3.102-3.101v-6.203c0-1.712,1.387-3.102,3.102-3.102h13.846c1.036,0,2.004,0.522,2.578,1.381
				l4.103,6.154c0.597,0.823,6.656,4.87,10.483,4.87C39.756,68.266,65.521,68.266,65.521,68.266z"/>
			<path fill="none" stroke="#2C2C2D" stroke-width="7" stroke-linecap="round" stroke-linejoin="round" stroke-miterlimit="10" d="
				M93.067,42.938c3.138,0.654,5.642,1.531,6.843,4.324c0.873,2.029,5.498,13.894,5.498,13.894"/>
			<path fill="none" stroke="#2C2C2D" stroke-width="7" stroke-linecap="round" stroke-linejoin="round" stroke-miterlimit="10" d="
				M104.023,79.547L104.023,79.547c-3.521,3.523-8.299,5.5-13.278,5.5h-5.973"/>
			<path fill="none" stroke="#2C2C2D" stroke-width="7" stroke-linecap="round" stroke-linejoin="round" stroke-miterlimit="10" d="
				M87.229,109.578v9.305c0,1.714,1.387,3.102,3.101,3.102h21.707c1.715,0,3.103-1.388,3.103-3.102v-10.313"/>
			
				<line fill="none" stroke="#2C2C2D" stroke-width="7" stroke-linecap="round" stroke-linejoin="round" stroke-miterlimit="10" x1="65.521" y1="96.298" x2="84.772" y2="96.298"/>
		</g>
		
			<polyline fill="none" stroke="#2C2C2D" stroke-width="7" stroke-linecap="round" stroke-linejoin="round" stroke-miterlimit="10" points="
			97.683,22.418 63.925,55.86 48.196,39.983 		"/>
		
			<polyline fill="none" stroke="#2C2C2D" stroke-width="7" stroke-linecap="round" stroke-linejoin="round" stroke-miterlimit="10" points="
			48.285,21.064 48.559,21.341 64.014,36.941 97.771,3.5 		"/>
	</g>
</g>
<g id="Layer_2" display="none">
</g>
</svg>
