<svg width="130.576" height="63.449" xmlns="http://www.w3.org/2000/svg">

 <g>
  <title>background</title>
  <rect fill="none" id="canvas_background" height="65.449" width="132.576" y="-1" x="-1"/>
 </g>
 <g>
  <title>Layer 1</title>
  <g id="Layer_1">
   <g id="svg_1">
    <path id="svg_2" d="m130.576,77.749l-16.784,4.078c-1.487,3.315 -3.305,6.439 -5.409,9.345l4.857,16.592l-30.624,17.686l-12.019,-12.591c-1.704,0.165 -3.433,0.252 -5.175,0.252c-1.836,0 -3.646,-0.092 -5.426,-0.271l-12.039,12.61l-30.631,-17.686l4.947,-16.866c-2.012,-2.804 -3.751,-5.816 -5.188,-8.991l-17.082,-4.158l0,-21.221c-0.002,0.003 -0.002,0.005 -0.003,0.008l0,-8.836l16.784,-4.078c1.487,-3.315 3.305,-6.439 5.409,-9.345l-4.857,-16.592l30.624,-17.685l12.019,12.591c1.704,-0.165 3.433,-0.252 5.175,-0.252c1.836,0 3.646,0.092 5.426,0.271l12.038,-12.61l30.631,17.686l-4.947,16.866c2.012,2.804 3.751,5.816 5.188,8.991l17.084,4.157l0,21.221c0.002,-0.003 0.002,-0.005 0.003,-0.008l0,8.836l-0.001,0z" fill="#FFFFFF"/>
   </g>
  </g>
  <g display="none" id="Layer_2"/>
 </g>
</svg>