<?xml version="1.0" encoding="utf-8"?>
<!-- Generator: Adobe Illustrator 16.0.4, SVG Export Plug-In . SVG Version: 6.00 Build 0)  -->
<!DOCTYPE svg PUBLIC "-//W3C//DTD SVG 1.1//EN" "http://www.w3.org/Graphics/SVG/1.1/DTD/svg11.dtd">
<svg version="1.1" xmlns="http://www.w3.org/2000/svg" xmlns:xlink="http://www.w3.org/1999/xlink" x="0px" y="0px"
	 width="130.576px" height="125.449px" viewBox="0 0 130.576 125.449" enable-background="new 0 0 130.576 125.449"
	 xml:space="preserve">
<g id="Layer_1">
	<g>
		<path fill="#FFFFFF" d="M130.576,77.749l-16.784,4.078c-1.487,3.315-3.305,6.439-5.409,9.345l4.857,16.592l-30.624,17.686
			l-12.019-12.591c-1.704,0.165-3.433,0.252-5.175,0.252c-1.836,0-3.646-0.092-5.426-0.271l-12.039,12.61l-30.631-17.686
			l4.947-16.866c-2.012-2.804-3.751-5.816-5.188-8.991L0.003,77.749V56.528C0.001,56.531,0.001,56.533,0,56.536V47.7l16.784-4.078
			c1.487-3.315,3.305-6.439,5.409-9.345l-4.857-16.592L47.96,0l12.019,12.591c1.704-0.165,3.433-0.252,5.175-0.252
			c1.836,0,3.646,0.092,5.426,0.271L82.618,0l30.631,17.686l-4.947,16.866c2.012,2.804,3.751,5.816,5.188,8.991l17.084,4.157v21.221
			c0.002-0.003,0.002-0.005,0.003-0.008V77.749z"/>
	</g>
</g>
<g id="Layer_2" display="none">
</g>
</svg>
