<?xml version="1.0" encoding="utf-8"?>
<!-- Generator: Adobe Illustrator 16.0.4, SVG Export Plug-In . SVG Version: 6.00 Build 0)  -->
<!DOCTYPE svg PUBLIC "-//W3C//DTD SVG 1.1//EN" "http://www.w3.org/Graphics/SVG/1.1/DTD/svg11.dtd">
<svg version="1.1" xmlns="http://www.w3.org/2000/svg" xmlns:xlink="http://www.w3.org/1999/xlink" x="0px" y="0px"
	 width="93.305px" height="93.58px" viewBox="0 0 93.305 93.58" enable-background="new 0 0 93.305 93.58" xml:space="preserve">
<g id="Layer_1">
	<g>
		<path fill="none" stroke="#2C2C2D" stroke-width="7" stroke-miterlimit="10" d="M24.604,89.824l-1,0.994l24.638-24.637
			c11.346,3.641,24.255,1.1,33.277-7.916c9.007-9.021,8.271-26.847,8.271-26.847"/>
		<path fill="none" stroke="#2C2C2D" stroke-width="7" stroke-miterlimit="10" d="M89.79,31.418
			c-0.154-3.577-2.34-4.435-4.867-1.906L73.437,41c-2.529,2.527-6.669,2.527-9.199,0L52.306,29.068c-2.527-2.529-2.527-6.67,0-9.199
			L63.794,8.396c2.528-2.53,1.678-4.727-1.907-4.881c0,0-17.825-0.748-26.859,8.285c-9.007,9.008-11.552,21.905-7.915,33.265
			L2.475,69.695"/>
	</g>
</g>
<g id="Layer_2" display="none">
</g>
</svg>
