<?xml version="1.0" encoding="utf-8"?>
<!-- Generator: Adobe Illustrator 16.0.4, SVG Export Plug-In . SVG Version: 6.00 Build 0)  -->
<!DOCTYPE svg PUBLIC "-//W3C//DTD SVG 1.1//EN" "http://www.w3.org/Graphics/SVG/1.1/DTD/svg11.dtd">
<svg version="1.1" xmlns="http://www.w3.org/2000/svg" xmlns:xlink="http://www.w3.org/1999/xlink" x="0px" y="0px"
	 width="27.343px" height="27.344px" viewBox="0 0 27.343 27.344" enable-background="new 0 0 27.343 27.344" xml:space="preserve">
<g id="Layer_1">
	<g>
		<path fill="#FFFFFF" d="M19.798,0H7.545C3.384,0,0,3.385,0,7.547v12.25c0,4.162,3.384,7.547,7.545,7.547h12.253
			c4.16,0,7.545-3.385,7.545-7.547V7.547C27.343,3.385,23.958,0,19.798,0L19.798,0z M24.917,19.797c0,2.824-2.297,5.121-5.119,5.121
			H7.545c-2.823,0-5.119-2.297-5.119-5.121V7.547c0-2.824,2.296-5.121,5.119-5.121h12.253c2.822,0,5.119,2.297,5.119,5.121V19.797z
			 M24.917,19.797"/>
		<path fill="#FFFFFF" d="M13.671,6.627c-3.885,0-7.046,3.161-7.046,7.045c0,3.885,3.161,7.047,7.046,7.047s7.046-3.162,7.046-7.047
			C20.717,9.788,17.556,6.627,13.671,6.627L13.671,6.627z M13.671,18.291c-2.546,0-4.62-2.07-4.62-4.619
			c0-2.546,2.072-4.619,4.62-4.619s4.62,2.073,4.62,4.619C18.291,16.221,16.219,18.291,13.671,18.291L13.671,18.291z M13.671,18.291
			"/>
		<path fill="#FFFFFF" d="M21.013,4.57c-0.468,0-0.927,0.188-1.257,0.52c-0.332,0.33-0.523,0.789-0.523,1.26
			c0,0.467,0.191,0.925,0.523,1.256c0.33,0.331,0.789,0.521,1.257,0.521c0.469,0,0.926-0.19,1.259-0.521
			c0.33-0.331,0.52-0.789,0.52-1.256c0-0.471-0.189-0.93-0.52-1.26C21.94,4.758,21.481,4.57,21.013,4.57L21.013,4.57z M21.013,4.57"
			/>
	</g>
</g>
<g id="Layer_2" display="none">
</g>
</svg>
