<?xml version="1.0" encoding="utf-8"?>
<!-- Generator: Adobe Illustrator 16.0.4, SVG Export Plug-In . SVG Version: 6.00 Build 0)  -->
<!DOCTYPE svg PUBLIC "-//W3C//DTD SVG 1.1//EN" "http://www.w3.org/Graphics/SVG/1.1/DTD/svg11.dtd">
<svg version="1.1" xmlns="http://www.w3.org/2000/svg" xmlns:xlink="http://www.w3.org/1999/xlink" x="0px" y="0px"
	 width="35.977px" height="35.977px" viewBox="0 0 35.977 35.977" enable-background="new 0 0 35.977 35.977" xml:space="preserve">
<g id="Layer_1">
	<g opacity="0.5">
		<g>
			<g>
				<g>
					<path fill="#FFFFFF" d="M12.201,15.188c0.052-3.633,2.211-5.768,5.792-5.768c3.379,0,5.462,1.576,5.462,4.42
						c0,3.861-3.887,4.318-3.887,7.367h-3.276c0-3.938,3.124-4.141,3.124-6.655c0-1.144-0.686-1.651-1.829-1.651
						c-1.271,0-1.98,0.736-2.007,2.312L12.201,15.188z M20.001,25.349c0,1.27-0.89,2.134-2.134,2.134s-2.109-0.864-2.109-2.134
						c0-1.244,0.865-2.108,2.109-2.108S20.001,24.104,20.001,25.349z"/>
				</g>
			</g>
			<g>
				<path fill="#FFFFFF" d="M17.988,35.977C8.069,35.977,0,27.907,0,17.988S8.069,0,17.988,0s17.988,8.069,17.988,17.988
					S27.907,35.977,17.988,35.977z M17.988,2.985c-8.272,0-15.003,6.73-15.003,15.003s6.73,15.003,15.003,15.003
					s15.002-6.73,15.002-15.003S26.261,2.985,17.988,2.985z"/>
			</g>
		</g>
	</g>
</g>
<g id="Layer_2" display="none">
</g>
</svg>
