<?xml version="1.0" encoding="utf-8"?>
<!-- Generator: Adobe Illustrator 16.0.4, SVG Export Plug-In . SVG Version: 6.00 Build 0)  -->
<!DOCTYPE svg PUBLIC "-//W3C//DTD SVG 1.1//EN" "http://www.w3.org/Graphics/SVG/1.1/DTD/svg11.dtd">
<svg version="1.1" xmlns="http://www.w3.org/2000/svg" xmlns:xlink="http://www.w3.org/1999/xlink" x="0px" y="0px"
	 width="734.15px" height="21.271px" viewBox="0 0 734.15 21.271" enable-background="new 0 0 734.15 21.271" xml:space="preserve">
<g id="Layer_1">
	<g>
		<g>
			
				<line fill="none" stroke="#008ACD" stroke-width="10" stroke-miterlimit="10" x1="723.516" y1="10.635" x2="10.635" y2="10.635"/>
		</g>
		<circle fill="#008ACD" cx="10.635" cy="10.635" r="10.635"/>
		<g>
			<path fill="#FFFFFF" d="M188.855,18.771c-4.486,0-8.136-3.649-8.136-8.135s3.649-8.135,8.136-8.135
				c4.485,0,8.135,3.649,8.135,8.135S193.341,18.771,188.855,18.771z"/>
			<path fill="#008ACD" d="M188.855,5c3.107,0,5.635,2.528,5.635,5.635s-2.527,5.635-5.635,5.635s-5.636-2.528-5.636-5.635
				S185.748,5,188.855,5 M188.855,0c-5.875,0-10.636,4.762-10.636,10.635s4.761,10.635,10.636,10.635
				c5.873,0,10.635-4.762,10.635-10.635S194.729,0,188.855,0L188.855,0z"/>
		</g>
		<g>
			<path fill="#FFFFFF" d="M367.075,18.771c-4.486,0-8.136-3.649-8.136-8.135s3.649-8.135,8.136-8.135s8.136,3.649,8.136,8.135
				S371.562,18.771,367.075,18.771z"/>
			<path fill="#008ACD" d="M367.075,5c3.107,0,5.636,2.528,5.636,5.635s-2.528,5.635-5.636,5.635s-5.636-2.528-5.636-5.635
				S363.968,5,367.075,5 M367.075,0c-5.874,0-10.636,4.762-10.636,10.635s4.762,10.635,10.636,10.635s10.636-4.762,10.636-10.635
				S372.949,0,367.075,0L367.075,0z"/>
		</g>
		<g>
			<path fill="#FFFFFF" d="M545.296,18.771c-4.486,0-8.136-3.649-8.136-8.135S540.81,2.5,545.296,2.5
				c4.485,0,8.135,3.649,8.135,8.135S549.781,18.771,545.296,18.771z"/>
			<path fill="#008ACD" d="M545.296,5c3.106,0,5.635,2.528,5.635,5.635s-2.528,5.635-5.635,5.635c-3.107,0-5.636-2.528-5.636-5.635
				S542.188,5,545.296,5 M545.296,0c-5.874,0-10.636,4.762-10.636,10.635s4.762,10.635,10.636,10.635s10.635-4.762,10.635-10.635
				S551.17,0,545.296,0L545.296,0z"/>
		</g>
		<g>
			<path fill="#FFFFFF" d="M723.516,18.771c-4.486,0-8.136-3.649-8.136-8.135s3.649-8.135,8.136-8.135
				c4.485,0,8.135,3.649,8.135,8.135S728.001,18.771,723.516,18.771z"/>
			<path fill="#008ACD" d="M723.516,5c3.107,0,5.635,2.528,5.635,5.635s-2.527,5.635-5.635,5.635s-5.636-2.528-5.636-5.635
				S720.408,5,723.516,5 M723.516,0c-5.874,0-10.636,4.762-10.636,10.635s4.762,10.635,10.636,10.635s10.635-4.762,10.635-10.635
				S729.39,0,723.516,0L723.516,0z"/>
		</g>
	</g>
</g>
<g id="Layer_2" display="none">
</g>
</svg>
