<?xml version="1.0" encoding="utf-8"?>
<!-- Generator: Adobe Illustrator 16.0.4, SVG Export Plug-In . SVG Version: 6.00 Build 0)  -->
<!DOCTYPE svg PUBLIC "-//W3C//DTD SVG 1.1//EN" "http://www.w3.org/Graphics/SVG/1.1/DTD/svg11.dtd">
<svg version="1.1" xmlns="http://www.w3.org/2000/svg" xmlns:xlink="http://www.w3.org/1999/xlink" x="0px" y="0px"
	 width="78.153px" height="78.153px" viewBox="0 0 78.153 78.153" enable-background="new 0 0 78.153 78.153" xml:space="preserve">
<g id="Layer_1">
	<path fill="#FFFFFF" d="M39.075,0C25.727,0,13.678,6.837,6.513,17.586V3.257H0v26.051h26.051v-6.514H11.071
		C16.933,12.7,27.354,6.513,39.075,6.513c17.91,0,32.564,14.654,32.564,32.564S56.985,71.641,39.075,71.641
		c-15.63,0-29.308-11.073-31.91-26.704c-0.326-1.627-1.953-2.928-3.91-2.604c-1.627,0.324-2.929,1.952-2.604,3.908
		C3.908,64.804,20.19,78.153,39.075,78.153c21.494,0,39.078-17.586,39.078-39.076C78.153,17.586,60.569,0,39.075,0"/>
</g>
<g id="Layer_2" display="none">
</g>
</svg>
