<?xml version="1.0" encoding="utf-8"?>
<!-- Generator: Adobe Illustrator 16.0.4, SVG Export Plug-In . SVG Version: 6.00 Build 0)  -->
<!DOCTYPE svg PUBLIC "-//W3C//DTD SVG 1.1//EN" "http://www.w3.org/Graphics/SVG/1.1/DTD/svg11.dtd">
<svg version="1.1" xmlns="http://www.w3.org/2000/svg" xmlns:xlink="http://www.w3.org/1999/xlink" x="0px" y="0px"
	 width="78.153px" height="78.143px" viewBox="0 0 78.153 78.143" enable-background="new 0 0 78.153 78.143" xml:space="preserve">
<g id="Layer_1">
	<g>
		<g>
			<path fill="#2C2C2D" d="M39.076,9.769c-14.853,0-27.367,11.123-29.095,25.877l6.472,0.756
				c1.344-11.471,11.067-20.12,22.623-20.12c11.557,0,21.279,8.649,22.623,20.12l6.473-0.756
				C66.441,20.892,53.934,9.769,39.076,9.769"/>
			<path fill="#2C2C2D" d="M39.076,45.588c-0.057,0-0.117,0.016-0.175,0.016L32.36,28.161l-6.1,2.293l6.55,17.471
				c-2.123,1.794-3.504,4.442-3.504,7.433c0,5.387,4.383,9.77,9.77,9.77c5.391,0,9.77-4.383,9.77-9.77S44.467,45.588,39.076,45.588
				 M42.334,58.604H35.82v-6.513h6.514V58.604z"/>
			<path fill="#2C2C2D" d="M39.076,0C17.528,0,0,17.528,0,39.075c0,21.549,17.528,39.067,39.076,39.067
				c21.549,0,39.077-17.519,39.077-39.067C78.153,17.528,60.625,0,39.076,0 M39.076,71.639c-17.953,0-32.562-14.608-32.562-32.563
				c0-17.954,14.609-32.563,32.562-32.563c17.958,0,32.564,14.609,32.564,32.563C71.641,57.03,57.034,71.639,39.076,71.639"/>
		</g>
	</g>
</g>
<g id="Layer_2" display="none">
</g>
</svg>
